<?xml version="1.0" encoding="utf-8"?>
<!-- Generator: Adobe Illustrator 25.4.1, SVG Export Plug-In . SVG Version: 6.00 Build 0)  -->
<svg version="1.1" id="Layer_1" xmlns="http://www.w3.org/2000/svg" xmlns:xlink="http://www.w3.org/1999/xlink" x="0px" y="0px"
	 viewBox="0 0 179.2 52" style="enable-background:new 0 0 179.2 52;" xml:space="preserve">
<style type="text/css">
	.st0{fill:#00D7FF;}
</style>
<g id="Group_7643">
	<path id="Path_16749" class="st0" d="M48.5,10.7h9.5v31.9h-9.4l-9.5-15v15h-9.5V10.7h10.1l8.8,13.9L48.5,10.7z"/>
	<path id="Path_16750" class="st0" d="M92.2,26.7c0-9-7.3-16.3-16.3-16.3c-9,0-16.3,7.3-16.3,16.3c0,9,7.3,16.3,16.3,16.3
		c7,0,13.3-4.5,15.5-11.2H81.2c-0.5,0.8-1.2,1.5-2,2c-1,0.5-2.1,0.8-3.2,0.7c-1.4,0-2.8-0.4-3.9-1.1c-1.1-0.8-2-2-2.4-3.3h22.3
		C92.1,29,92.2,27.8,92.2,26.7z M70,22.5c0.6-1.1,1.4-2,2.4-2.6c1.1-0.6,2.3-1,3.6-0.9c1.2,0,2.5,0.3,3.6,0.9c1,0.6,1.9,1.5,2.4,2.6
		H70z"/>
	<path id="Path_16751" class="st0" d="M107.4,10.7l-4.5,7.1l-4.5-7.1H87.1l10.2,16L87.2,42.6h11.3l4.5-7l4.5,7h11.3l-10.1-15.9
		l4.1-6.5h9.7v22.4h9.9V20.2h9.9v-9.5H107.4z"/>
</g>
</svg>
